<svg width="44" height="44" viewBox="0 0 44 44" fill="none" xmlns="http://www.w3.org/2000/svg">
<path id="Vector" d="M43.3562 0.00873772C23.2684 3.24646 7.70584 18.7802 3.95316 38.1701C3.14376 37.9883 2.33435 37.8427 1.52495 37.6608C1.15704 37.5881 0.862718 37.6972 0.678764 37.9155C0.347646 37.6608 -0.167432 38.0974 0.0533138 38.4976C0.789132 39.6981 1.56174 40.9349 2.37114 42.1354C2.73905 42.6811 3.18055 43.7361 3.87958 43.9544C4.57861 44.1727 5.31441 43.5542 5.86627 43.2268C7.22754 42.4265 8.55201 41.6625 9.91327 40.8622C10.4651 40.5348 10.3916 39.5889 9.72932 39.4434C8.40485 39.1524 7.11718 38.8614 5.79271 38.6067C9.14068 19.7261 24.2985 4.55609 43.6138 1.02735C44.276 0.845451 44.0185 -0.100399 43.3562 0.00873772Z" fill="white" fill-opacity="0.8"/>
</svg>
