<svg width="120" height="57" viewBox="0 0 120 57" fill="none" xmlns="http://www.w3.org/2000/svg">
<g clip-path="url(#clip0_3172_8520)">
<path d="M104.088 13.0036C102.881 12.3173 101.277 12.5832 99.8497 12.7233C97.578 12.9806 95.3063 13.2379 93.0743 13.6054C92.3806 13.7306 92.2006 14.6673 92.9539 14.7075C94.1394 14.7167 95.3248 14.7259 96.5103 14.7351C97.8265 14.6972 99.7116 14.3923 100.911 14.6456C100.996 14.6772 101.062 14.6536 101.082 14.7087C94.0482 23.9046 83.5429 31.0495 71.6738 34.2012C71.327 34.2638 70.9345 34.4051 70.5876 34.4677C73.2486 31.3923 74.7615 27.796 73.9609 23.7247C72.5404 16.7002 64.3594 12.8568 56.2489 15.7766C48.8578 18.4373 44.978 26.747 48.64 32.404C51.5184 36.9107 57.2796 38.1375 63.2385 37.8607C54.136 43.5664 41.3166 44.6937 31.3038 44.9974C19.5227 45.3149 6.29006 44.4734 -4.11022 51.7051C-11.6429 56.8457 -15.469 65.5097 -13.5289 73.1567C-13.4694 73.3221 -13.39 73.5427 -13.3958 73.7316C-16.0613 75.5631 -18.4115 77.6547 -20.2442 79.7469C-27.5555 88.1709 -29.0752 98.9318 -24.6685 107.684C-24.4443 108.101 -23.6594 107.819 -23.8182 107.378C-28.2411 97.7596 -25.6316 85.9213 -16.3676 77.7908C-15.3035 76.8473 -14.1541 75.9353 -12.8996 75.11C-10.296 81.5216 -2.76008 88.0884 5.82231 85.2479C14.0777 82.5252 13.3559 73.1317 7.30637 70.078C1.61771 67.2058 -5.37731 68.9144 -11.2396 72.3326C-12.177 68.4973 -11.596 64.3646 -9.49439 60.5563C-3.07272 48.8404 11.9846 47.1567 24.408 46.9816C36.314 46.806 48.5867 46.6229 59.9514 41.6597C62.639 40.5054 65.2075 39.0203 67.4607 37.2749C69.6273 36.9309 71.7541 36.4767 73.6253 35.9276C85.4149 32.5554 95.9203 25.4104 103.059 16.3013C103.297 16.9629 103.359 17.7503 103.506 18.5693C103.746 19.8529 103.987 21.1365 104.227 22.4201C104.513 23.625 106.967 23.053 106.746 21.8245C106.438 19.9425 106.065 18.084 105.691 16.2255C105.471 14.9971 105.296 13.69 104.088 13.0036ZM2.20593 70.4817C8.07007 71.1732 13.9906 78.3838 6.82823 82.706C0.0186147 86.7767 -7.58853 80.4224 -10.0091 75.7509C-10.3127 75.1129 -10.6162 74.4748 -10.8544 73.8132C-6.81537 71.4873 -2.19714 69.9493 2.20593 70.4817ZM66.7719 35.1563C62.851 35.7581 58.8427 35.7064 55.4324 34.4429C49.871 32.3345 48.1338 26.4829 51.8882 21.5191C55.6426 16.5553 63.6034 15.6825 68.1148 18.9785C73.0266 22.5663 72.4429 29.5648 67.9925 34.0318C67.5486 34.4407 67.1702 34.8261 66.7719 35.1563Z" fill="white" fill-opacity="0.8"/>
</g>
<defs>
<clipPath id="clip0_3172_8520">
<rect width="120" height="57" fill="white"/>
</clipPath>
</defs>
</svg>
