<svg width="54" height="54" viewBox="0 0 54 54" fill="none" xmlns="http://www.w3.org/2000/svg">
<path d="M53.2099 0.0107236C28.5567 3.98429 9.45716 23.0485 4.85161 46.8452C3.85826 46.6219 2.86488 46.4434 1.87153 46.2201C1.42001 46.1308 1.05879 46.2648 0.833028 46.5327C0.426656 46.2201 -0.205484 46.7559 0.0654305 47.247C0.96848 48.7204 1.91668 50.2383 2.91003 51.7117C3.36156 52.3814 3.9034 53.6761 4.7613 53.944C5.6192 54.2119 6.52223 53.4529 7.19952 53.0511C8.87016 52.0689 10.4956 51.1313 12.1663 50.149C12.8436 49.7472 12.7533 48.5864 11.9405 48.4078C10.315 48.0506 8.73472 47.6935 7.10923 47.3809C11.2181 24.2093 29.8209 5.59157 53.526 1.26083C54.3387 1.0376 54.0227 -0.123217 53.2099 0.0107236Z" fill="white" fill-opacity="0.8"/>
</svg>
