<svg width="42" height="39" viewBox="0 0 42 39" fill="none" xmlns="http://www.w3.org/2000/svg">
<path d="M41.5807 36.551C38.7439 32.6596 35.7009 29.1128 32.405 25.8041C31.2167 24.6138 30.0654 26.6433 31.2302 27.7805C33.3613 29.952 35.3873 32.2331 37.3511 34.605C29.7883 32.2857 22.5748 27.9724 16.2443 22.0651C9.73449 15.9828 5.40056 8.68918 0.680861 0.867365C0.497687 0.567251 0.0266824 0.774513 0.124218 1.11231C2.67957 9.82308 8.90626 17.9336 15.0889 23.9694C20.5782 29.3587 26.8298 33.4606 33.4038 36.0882C30.904 35.9826 28.3809 35.8238 25.8383 35.7371C25.1647 35.7162 25.3716 36.7673 25.9207 36.9699C30.8394 38.7395 36.1387 38.8188 40.9471 38.4796C41.8816 38.5125 42.1262 37.3262 41.5807 36.551Z" fill="white" fill-opacity="0.8"/>
</svg>
