<svg width="92" height="91" viewBox="0 0 92 91" fill="none" xmlns="http://www.w3.org/2000/svg">
<g clip-path="url(#clip0_3685_21286)">
<path d="M70.4727 77.1851C82.2355 77.1851 91.8008 67.6171 91.8008 55.8569C91.8008 45.12 83.8287 36.2107 73.4876 34.7423C74.3155 28.7281 76.6118 23.0056 80.1995 18.0432C80.8973 17.0748 80.8712 15.7625 80.1267 14.8254C79.3962 13.9031 78.1268 13.5535 77.0127 14.0234C60.0846 21.0892 49.1445 37.5124 49.1445 55.8569C49.1445 67.6171 58.7098 77.1851 70.4727 77.1851ZM22.1289 77.1851C33.8917 77.1851 43.457 67.6171 43.457 55.8569C43.457 45.12 35.4849 36.2107 25.1438 34.7423C25.9717 28.7281 28.268 23.0056 31.8558 18.0432C32.5536 17.0748 32.5274 15.7625 31.7829 14.8254C31.0524 13.9031 29.783 13.5535 28.669 14.0234C11.7409 21.0892 0.800781 37.5124 0.800781 55.8569C0.800781 67.6171 10.3661 77.1851 22.1289 77.1851Z" fill="url(#paint0_linear_3685_21286)"/>
</g>
<defs>
<linearGradient id="paint0_linear_3685_21286" x1="11.4369" y1="204.769" x2="180.855" y2="96.9729" gradientUnits="userSpaceOnUse">
<stop offset="0.162832" stop-color="#45DB84"/>
<stop offset="1" stop-color="#CBF542"/>
</linearGradient>
<clipPath id="clip0_3685_21286">
<rect width="91" height="91" fill="white" transform="matrix(-1 0 0 -1 91.8008 91)"/>
</clipPath>
</defs>
</svg>
